PathFileType	4	(X/Y/Z)	C:\Users\dbl\Desktop\LZH\BX\Trimmed_bx_n_10_1801.trc
DataRate	CameraRate	NumFrames	NumMarkers	Units	OrigDataRate	OrigDataStartFrame	OrigNumFrames
50.00	50.00	       4	43	mm	50.00	345	       394
Frame#	Time	Top.Head			R.Acromium			L.Acromium			Sternum			R.ASIS			L.ASIS			V.Sacral			R.Thigh.Upper			R.Thigh.Front			R.Thigh.Rear			R.Knee.Lat			R.Knee.Med			R.Shank.Upper			R.Shank.Front			R.Shank.Rear			R.Ankle.Lat			R.Midfoot.Lat			R.Toe.Lat			R.Toe.Tip			R.Toe.Med			R.Ankle.Med			R.Midfoot.Sup			R.Heel			L.Thigh.Upper			L.Thigh.Front			L.Thigh.Rear			L.Knee.Lat			L.Knee.Med			L.Shank.Upper			L.Shank.Front			L.Shank.Rear			L.Ankle.Lat			L.Midfoot.Lat			L.Toe.Lat			L.Toe.Tip			L.Toe.Med			L.Ankle.Med			L.Midfoot.Sup			L.Heel			origin1 front left			origin2 front right			origin 3 back right			origin 4 back leftt			
		X1	Y1	Z1	X2	Y2	Z2	X3	Y3	Z3	X4	Y4	Z4	X5	Y5	Z5	X6	Y6	Z6	X7	Y7	Z7	X8	Y8	Z8	X9	Y9	Z9	X10	Y10	Z10	X11	Y11	Z11	X12	Y12	Z12	X13	Y13	Z13	X14	Y14	Z14	X15	Y15	Z15	X16	Y16	Z16	X17	Y17	Z17	X18	Y18	Z18	X19	Y19	Z19	X20	Y20	Z20	X21	Y21	Z21	X22	Y22	Z22	X23	Y23	Z23	X24	Y24	Z24	X25	Y25	Z25	X26	Y26	Z26	X27	Y27	Z27	X28	Y28	Z28	X29	Y29	Z29	X30	Y30	Z30	X31	Y31	Z31	X32	Y32	Z32	X33	Y33	Z33	X34	Y34	Z34	X35	Y35	Z35	X36	Y36	Z36	X37	Y37	Z37	X38	Y38	Z38	X39	Y39	Z39	X40	Y40	Z40	X41	Y41	Z41	X42	Y42	Z42	X43	Y43	Z43	

345	6.880	-394.67062	262.05939	1412.27747	-450.13062	92.10622	1136.81909	-446.83380	430.68649	1126.65112	-556.33142	260.95792	969.34875	-751.45435	127.40929	820.30756	-717.69971	364.10855	807.08215	-940.53503	272.53897	812.87817	-726.50500	66.13475	715.72943	-658.44318	133.85114	759.49219	-620.98151	54.78926	644.05048	-526.94482	69.43240	543.44403	-487.14810	176.22646	530.31091	-544.34552	73.13811	494.86658	-457.47913	110.98194	496.89496	-605.04218	85.23634	452.05505	-678.70251	147.03156	215.07088	-614.80945	86.62652	167.31044	-567.14362	67.16569	163.99089	-488.29623	111.21605	157.09190	-536.59851	160.29121	163.62828	-630.48419	221.51524	211.82594	-599.15546	197.55228	166.31731	-723.08038	216.56351	175.75998	-719.42322	456.30203	707.73584	-636.62683	380.16486	757.05969	-623.25494	451.94586	636.07556	-517.47021	430.00955	556.25238	-451.25519	326.55493	537.74445	-499.31207	431.00607	513.78931	-436.92010	383.24924	505.32327	-562.47424	426.25876	479.66528	-669.45923	402.04889	213.02638	-587.49414	455.89343	166.75981	-549.83020	462.88739	162.31841	-487.74554	419.65863	165.33807	-526.69171	374.69406	174.04810	-638.14319	311.28644	199.05060	-595.82263	336.88797	161.28439	-734.51111	331.99612	166.27167	-444.07434	448.37094	147.01384	-450.57523	75.68363	143.17278	-806.47217	82.74674	142.27235	-799.54553	457.64606	146.02681	
346	6.900	-399.30292	262.11203	1424.73413	-452.13837	91.68350	1148.73242	-448.97540	430.53708	1138.68213	-555.31439	260.56790	978.72791	-746.37158	129.50134	823.54657	-715.32660	363.68878	813.73340	-938.36157	270.97171	819.85388	-724.23132	65.88596	720.49707	-655.49005	133.46722	763.42932	-619.87250	55.28317	646.71185	-527.36481	70.51344	544.64429	-488.16785	176.91988	531.41144	-545.10419	74.24323	495.80200	-458.27490	112.21895	497.54135	-605.72125	86.14690	452.77905	-678.74573	147.10098	215.14117	-614.79388	86.64757	167.30048	-567.14441	67.09322	163.81593	-488.20441	111.31634	156.93813	-536.55023	160.45615	163.43997	-630.45514	221.60583	211.74864	-599.19763	197.54120	166.20749	-723.01532	216.49164	175.69113	-718.20654	455.38879	713.13824	-634.33795	379.80423	760.86047	-623.24335	451.13101	639.46576	-518.80493	429.25177	557.91028	-452.51099	325.87433	538.71240	-501.00061	430.36636	514.74493	-438.38190	382.84760	506.01959	-563.96472	425.80432	480.50235	-669.59784	401.99966	213.10854	-587.54974	455.93973	166.67738	-549.87622	463.02454	162.44008	-487.83704	419.66510	165.40633	-526.68561	374.80133	174.11626	-637.98572	311.24344	199.20827	-596.10895	336.74356	161.39781	-734.55743	332.04175	166.37106	-444.04230	448.38721	147.08522	-450.51938	75.53790	143.32921	-806.43695	82.73128	142.28374	-799.54169	457.52057	146.12735	
347	6.920	-404.08096	262.09576	1437.38440	-454.07291	91.12877	1160.83337	-451.16644	430.42017	1150.86743	-554.24591	260.14172	988.35748	-739.67627	132.85062	825.39532	-712.85876	363.25711	820.52710	-935.97156	269.39240	826.97919	-721.83154	65.85305	725.19678	-652.47174	133.06573	767.47443	-618.82971	55.78719	649.46259	-527.90771	71.62390	545.88263	-489.12689	177.64575	532.47412	-546.03241	75.29553	496.84192	-459.20685	113.46051	498.15457	-606.43201	87.12781	453.54868	-678.82288	147.19550	215.22939	-614.79083	86.68169	167.24702	-567.04291	67.07785	163.64445	-488.14948	111.38934	156.84619	-536.52045	160.58940	163.32646	-630.54712	221.74672	211.83771	-599.28339	197.55322	166.13580	-722.96722	216.38539	175.52693	-716.95886	454.61560	718.60535	-632.10114	379.57230	764.76465	-623.28101	450.45944	642.90283	-520.29291	428.55527	559.63440	-453.92587	325.21466	539.87030	-502.83606	429.69025	515.72992	-439.97165	382.52725	506.73764	-565.58234	425.39709	481.38297	-669.73700	402.02539	213.22760	-587.61102	455.98627	166.58926	-549.97540	463.10825	162.53804	-487.90393	419.67166	165.46300	-526.71814	374.91330	174.20930	-637.77924	311.19955	199.42767	-596.37714	336.70557	161.47350	-734.56067	332.08081	166.39758	-443.96390	448.45660	147.14146	-450.46613	75.41227	143.48309	-806.41895	82.70625	142.31860	-799.48730	457.40002	146.12294	
348	6.940	-408.92706	261.98990	1450.24609	-455.94504	90.49457	1173.09155	-453.40039	430.38434	1163.24902	-553.12555	259.67883	998.23688	-733.24957	135.75079	828.05933	-710.29260	362.81467	827.46002	-933.35315	268.06329	834.14178	-719.43774	65.95381	729.90625	-649.47906	132.60739	771.64862	-617.91632	56.29698	652.34204	-528.66595	72.67278	547.17834	-490.05844	178.40637	533.50708	-547.17108	76.27078	497.92511	-460.30954	114.58785	498.76794	-607.28467	88.04549	454.35120	-678.93317	147.27855	215.31165	-614.79163	86.71988	167.11945	-566.91071	67.09682	163.46045	-488.13608	111.42057	156.82814	-536.51941	160.64925	163.30779	-630.70581	221.93851	211.98177	-599.39569	197.56696	166.08211	-722.95673	216.22438	175.26213	-715.72278	453.97006	724.23151	-629.84027	379.43118	768.87927	-623.39136	449.86362	646.36322	-521.99243	427.87592	561.39038	-455.48795	324.63101	541.19879	-504.78464	429.04431	516.85754	-441.80792	382.21515	507.39734	-567.35046	424.97885	482.32416	-669.88910	402.09671	213.35785	-587.68939	456.04321	166.52577	-550.09570	463.14612	162.60051	-487.93686	419.68066	165.48741	-526.79559	375.04568	174.31310	-637.60315	311.15549	199.64552	-596.51886	336.74530	161.60986	-734.55042	332.11462	166.38023	-443.87463	448.58359	147.21222	-450.43430	75.34370	143.57787	-806.40851	82.69803	142.34279	-799.40869	457.25851	145.91805	
